<?xml version="1.0" encoding="UTF-8"?>
<svg version="1.1" xmlns="http://www.w3.org/2000/svg" width="208" height="171">
<path d="M0 0 C68.64 0 137.28 0 208 0 C208 56.43 208 112.86 208 171 C139.36 171 70.72 171 0 171 C0 114.57 0 58.14 0 0 Z " fill="#713CE7" transform="translate(0,0)"/>
<path d="M0 0 C0.77346771 -0.00287018 1.54693542 -0.00574036 2.34384155 -0.00869751 C3.98297862 -0.01073908 5.62214 -0.00520263 7.26123047 0.00732422 C9.74373548 0.02324699 12.22457985 0.00754804 14.70703125 -0.01171875 C25.80319006 -0.02733521 34.68436143 0.36841661 43.1484375 8.3984375 C46.69882501 6.69075671 49.94242129 4.65645566 53.24609375 2.51953125 C57.55000013 -0.01685711 61.8124693 0.22080184 66.6484375 0.1953125 C67.89657227 0.18676239 67.89657227 0.18676239 69.16992188 0.17803955 C70.92837251 0.16859926 72.68684076 0.16205942 74.4453125 0.15820312 C77.13833221 0.14847401 79.83059611 0.11743272 82.5234375 0.0859375 C84.2317663 0.07940952 85.94010056 0.07415824 87.6484375 0.0703125 C88.45474609 0.0579657 89.26105469 0.0456189 90.09179688 0.03289795 C95.58861704 0.05486754 95.58861704 0.05486754 97.86050415 1.44915771 C99.83458282 4.43691453 99.56569794 7.48053804 99.53662109 10.94335938 C99.54187805 11.70951065 99.54713501 12.47566193 99.55255127 13.26502991 C99.5657625 15.79928941 99.55700949 18.33292154 99.546875 20.8671875 C99.54889542 22.62691366 99.55180659 24.38663901 99.55557251 26.1463623 C99.55999737 29.83512338 99.55355964 33.52366658 99.53955078 37.21240234 C99.52245873 41.94395031 99.53229905 46.6749878 99.55026817 51.40651703 C99.56110167 55.04046484 99.55766169 58.67429136 99.5498848 62.3082428 C99.54788158 64.05298421 99.55034631 65.79773659 99.55732346 67.54246521 C99.5649309 69.97977935 99.55334433 72.41626341 99.53662109 74.85351562 C99.54269379 75.57672501 99.54876648 76.29993439 99.55502319 77.0450592 C99.51867533 79.90024913 99.45998782 81.92359694 97.86999512 84.34693909 C94.69227598 86.28783644 90.89916169 85.79593637 87.28125 85.76953125 C85.49088352 85.78691556 83.70051898 85.80449992 81.91015625 85.82226562 C79.0902955 85.8323348 76.27056157 85.83593576 73.45068359 85.83422852 C70.72715514 85.8378027 68.00460429 85.86516331 65.28125 85.89453125 C64.44151642 85.88634872 63.60178284 85.8781662 62.73660278 85.86973572 C58.69998516 85.92096392 56.6453328 86.08630555 53.14916992 88.2824707 C50.99442996 90.56131528 50.17391921 92.14934505 49.3359375 95.1484375 C48.98595703 96.34726563 48.98595703 96.34726563 48.62890625 97.5703125 C48.47035156 98.17359375 48.31179687 98.776875 48.1484375 99.3984375 C42.72042194 100.72528575 42.72042194 100.72528575 40.3984375 99.3984375 C39.1484375 97.3984375 39.1484375 97.3984375 38.2734375 93.9609375 C36.91832414 89.66974521 35.97088382 88.70279102 32.1484375 86.3984375 C29.09978378 85.83978935 26.1082008 85.8643966 23.015625 85.89453125 C22.14197296 85.88511002 21.26832092 85.87568878 20.36819458 85.86598206 C17.5863684 85.8373728 14.80539883 85.83425321 12.0234375 85.8359375 C9.23446078 85.83233293 6.44610371 85.8228549 3.65725708 85.79518127 C1.92448808 85.77835623 0.19151425 85.77554597 -1.54129028 85.78819275 C-7.29611368 85.73769629 -7.29611368 85.73769629 -9.57312012 84.34693909 C-11.53463695 81.35734902 -11.26878845 78.31222886 -11.23974609 74.85351562 C-11.24500305 74.08736435 -11.25026001 73.32121307 -11.25567627 72.53184509 C-11.2688875 69.99758559 -11.26013449 67.46395346 -11.25 64.9296875 C-11.25202042 63.16996134 -11.25493159 61.41023599 -11.25869751 59.6505127 C-11.26312237 55.96175162 -11.25668464 52.27320842 -11.24267578 48.58447266 C-11.22558373 43.85292469 -11.23542405 39.1218872 -11.25339317 34.39035797 C-11.26422667 30.75641016 -11.26078669 27.12258364 -11.2530098 23.4886322 C-11.25100658 21.74389079 -11.25347131 19.99913841 -11.26044846 18.25440979 C-11.2680559 15.81709565 -11.25646933 13.38061159 -11.23974609 10.94335938 C-11.24581879 10.22014999 -11.25189148 9.49694061 -11.25814819 8.7518158 C-11.22159557 5.88054212 -11.17009898 3.87362088 -9.54620361 1.45114136 C-6.62009683 -0.36654374 -3.3401022 -0.02727223 0 0 Z " fill="#FDFAFE" transform="translate(57.8515625,35.6015625)"/>
<path d="M0 0 C0 21.45 0 42.9 0 65 C-17.1875 65.4375 -17.1875 65.4375 -22.58666992 65.56811523 C-24.00961208 65.60626572 -25.43254569 65.64473717 -26.85546875 65.68359375 C-27.95066833 65.7083075 -27.95066833 65.7083075 -29.06799316 65.73352051 C-32.83027439 65.84046535 -36.326305 66.20939597 -40 67 C-40.10159983 59.15302617 -40.17154999 51.30622263 -40.21972656 43.45874023 C-40.2375524 40.7901319 -40.26708675 38.12238477 -40.30175781 35.45385742 C-40.35039508 31.61365924 -40.37299739 27.77404425 -40.390625 23.93359375 C-40.41127014 22.74479111 -40.43191528 21.55598846 -40.45318604 20.3311615 C-40.45497729 13.68707116 -40.28813686 9.22741411 -36 4 C-29 0 -29 0 0 0 Z " fill="#783AE7" transform="translate(147,46)"/>
<path d="M0 0 C28 0 28 0 36 4 C41.088746 10.0467752 40.52310915 16.30480077 40.390625 23.93359375 C40.38496521 25.16666763 40.37930542 26.39974152 40.37347412 27.67018127 C40.35115549 31.59302239 40.30096423 35.51493679 40.25 39.4375 C40.22766801 42.10350226 40.21167969 44.76949582 40.1953125 47.43554688 C40.15130524 53.9573453 40.08443668 60.47860642 40 67 C38.87945976 66.75885216 38.87945976 66.75885216 37.73628235 66.51283264 C34.11728079 65.83456122 30.52555464 65.76641114 26.85546875 65.68359375 C26.17246704 65.66494263 25.48946533 65.6462915 24.7857666 65.6270752 C22.25313298 65.55917278 19.72030268 65.49877287 17.1875 65.4375 C11.515625 65.293125 5.84375 65.14875 0 65 C0 43.55 0 22.1 0 0 Z " fill="#693EE6" transform="translate(57,46)"/>
<path d="M0 0 C9.24 0 18.48 0 28 0 C28 0.33 28 0.66 28 1 C19.42 1 10.84 1 2 1 C2.33 21.13 2.66 41.26 3 62 C13.02173424 62.24936114 13.02173424 62.24936114 23.04394531 62.47802734 C24.29272461 62.5136377 25.54150391 62.54924805 26.828125 62.5859375 C28.7447998 62.63306885 28.7447998 62.63306885 30.70019531 62.68115234 C34 63 34 63 38 65 C38 46.52 38 28.04 38 9 C40 11 40 11 40.24050903 13.3664856 C40.2338472 14.85207474 40.2338472 14.85207474 40.22705078 16.36767578 C40.22689972 17.48868683 40.22674866 18.60969788 40.22659302 19.76467896 C40.21627045 20.97928802 40.20594788 22.19389709 40.1953125 23.4453125 C40.1924826 24.68546112 40.18965271 25.92560974 40.18673706 27.20333862 C40.17742174 30.50124633 40.1594489 33.79895972 40.1373291 37.09680176 C40.11687474 40.4616457 40.10773623 43.82651807 40.09765625 47.19140625 C40.07556519 53.79434723 40.04206483 60.39715771 40 67 C38.87945976 66.75885216 38.87945976 66.75885216 37.73628235 66.51283264 C34.11728079 65.83456122 30.52555464 65.76641114 26.85546875 65.68359375 C26.17246704 65.66494263 25.48946533 65.6462915 24.7857666 65.6270752 C22.25313298 65.55917278 19.72030268 65.49877287 17.1875 65.4375 C11.515625 65.293125 5.84375 65.14875 0 65 C0 43.55 0 22.1 0 0 Z " fill="#6747C4" transform="translate(57,46)"/>
<path d="M0 0 C0.74135193 0.00062943 1.48270386 0.00125885 2.246521 0.00190735 C3.50858368 -0.00743584 3.50858368 -0.00743584 4.79614258 -0.01696777 C5.70757019 -0.00775803 6.6189978 0.00145172 7.55804443 0.01094055 C8.49541443 0.01044205 9.43278442 0.00994354 10.39855957 0.00942993 C12.38582472 0.01177375 14.37309266 0.02152028 16.36029053 0.03804016 C19.39132524 0.06151967 22.42147383 0.0586174 25.45257568 0.05195618 C27.38357048 0.0575368 29.31456158 0.06464908 31.24554443 0.07344055 C32.14887512 0.07252914 33.05220581 0.07161774 33.98291016 0.07067871 C39.91259412 0.13686478 44.93131031 0.37349259 49.54241943 4.4992218 C50.07866943 5.1179718 50.61491943 5.7367218 51.16741943 6.3742218 C50.83741943 7.0342218 50.50741943 7.6942218 50.16741943 8.3742218 C49.38818115 7.8502179 49.38818115 7.8502179 48.59320068 7.31562805 C47.89581787 6.86058899 47.19843506 6.40554993 46.47991943 5.9367218 C45.45318115 5.2580304 45.45318115 5.2580304 44.40570068 4.56562805 C39.5279479 1.9692675 34.27991274 2.21421641 28.87445068 2.20625305 C28.08721115 2.20292465 27.29997162 2.19959625 26.48887634 2.19616699 C24.83233217 2.19112216 23.17577792 2.18875791 21.51922607 2.18891907 C18.9779618 2.18672011 16.43712334 2.16850511 13.89593506 2.14961243 C12.28460842 2.14668054 10.67327972 2.14469438 9.06195068 2.14375305 C8.30050247 2.13656754 7.53905426 2.12938202 6.75453186 2.12197876 C2.4998551 1.98801955 2.4998551 1.98801955 -0.83258057 4.3742218 C-1.03085507 6.89294172 -1.10537513 9.30169846 -1.09136963 11.82148743 C-1.09487427 12.58909897 -1.09837891 13.35671051 -1.10198975 14.14758301 C-1.11081225 16.69197052 -1.10495616 19.23608133 -1.09820557 21.7804718 C-1.09955207 23.54402215 -1.10149248 25.30757214 -1.10400391 27.07112122 C-1.10695587 30.77000965 -1.10265522 34.4688016 -1.09332275 38.16767883 C-1.08192816 42.91607086 -1.08848725 47.66423682 -1.10046768 52.41262054 C-1.10768435 56.05508639 -1.10539925 59.69749838 -1.1002121 63.33996582 C-1.09887506 65.09111559 -1.10052519 66.84227019 -1.1051712 68.59341431 C-1.11023329 71.03806061 -1.10253088 73.48233749 -1.09136963 75.92695618 C-1.09541809 76.65533188 -1.09946655 77.38370758 -1.1036377 78.13415527 C-1.18824767 82.20457778 -1.18824767 82.20457778 1.16741943 85.3742218 C4.14192399 85.58370989 7.03084243 85.67536753 10.00726318 85.68281555 C11.81000083 85.70797292 13.61273513 85.73337098 15.41546631 85.75898743 C18.26400916 85.78776059 21.11249394 85.81177166 23.96112061 85.83052063 C26.70597445 85.85213365 29.4501446 85.89156804 32.19476318 85.93281555 C33.47455299 85.93298927 33.47455299 85.93298927 34.78019714 85.9331665 C35.57434525 85.94650528 36.36849335 85.95984406 37.18670654 85.97358704 C38.23355873 85.98119301 38.23355873 85.98119301 39.30155945 85.98895264 C41.69595359 86.48335535 42.61222146 87.54090552 44.16741943 89.3742218 C37.8314112 89.35794997 31.49657397 89.30317998 25.16107178 89.22163391 C23.00587558 89.19843708 20.85056576 89.18405426 18.69525146 89.17866516 C15.5967107 89.16938809 12.49996136 89.12842393 9.40179443 89.08125305 C8.43811951 89.0851857 7.47444458 89.08911835 6.48156738 89.09317017 C5.58093567 89.07352707 4.68030396 89.05388397 3.75238037 89.03364563 C2.96184265 89.0269838 2.17130493 89.02032196 1.35681152 89.01345825 C-2.04440122 88.02040672 -3.05626391 86.38941897 -4.83258057 83.3742218 C-5.1815731 80.60820107 -5.30477437 78.26367819 -5.22662354 75.51045227 C-5.22066666 74.73425537 -5.21470978 73.95805847 -5.20857239 73.15834045 C-5.18377228 70.60201876 -5.12983354 68.04724406 -5.07476807 65.4914093 C-5.04993018 63.7121428 -5.02660595 61.93285458 -5.00473022 60.15354919 C-4.95469511 56.4294199 -4.89107452 52.70585837 -4.81695557 48.98213196 C-4.72231175 44.20613405 -4.65417986 39.43022736 -4.59524345 34.65366936 C-4.54827906 30.98187835 -4.49103204 27.31030793 -4.43027115 23.63872147 C-4.40165805 21.87727083 -4.375391 20.11578048 -4.35149765 18.35425949 C-4.3158694 15.89560389 -4.2673072 13.43755015 -4.21490479 10.97920227 C-4.20646042 10.24978424 -4.19801605 9.52036621 -4.1893158 8.7688446 C-3.9881592 0.81440137 -3.9881592 0.81440137 0 0 Z " fill="#6449BE" transform="translate(48.83258056640625,34.62577819824219)"/>
<path d="M0 0 C0.99 0 1.98 0 3 0 C3.15472622 8.7891255 3.30289158 17.57833116 3.4429636 26.36770248 C3.50822317 30.45011143 3.57563856 34.53245977 3.64819336 38.61474609 C3.71829014 42.56339555 3.78244644 46.51210306 3.84269524 50.46091461 C3.86654385 51.95821817 3.89243819 53.45549076 3.92053413 54.95272064 C4.0830307 63.69352355 3.94508011 72.29892578 3 81 C2.34 81 1.68 81 1 81 C0.67 54.27 0.34 27.54 0 0 Z " fill="#7A42C9" transform="translate(156,37)"/>
<path d="M0 0 C0.74135193 0.00062943 1.48270386 0.00125885 2.246521 0.00190735 C3.50858368 -0.00743584 3.50858368 -0.00743584 4.79614258 -0.01696777 C5.70757019 -0.00775803 6.6189978 0.00145172 7.55804443 0.01094055 C8.49541443 0.01044205 9.43278442 0.00994354 10.39855957 0.00942993 C12.38582472 0.01177375 14.37309266 0.02152028 16.36029053 0.03804016 C19.39132524 0.06151967 22.42147383 0.0586174 25.45257568 0.05195618 C27.38357048 0.0575368 29.31456158 0.06464908 31.24554443 0.07344055 C32.14887512 0.07252914 33.05220581 0.07161774 33.98291016 0.07067871 C39.91259412 0.13686478 44.93131031 0.37349259 49.54241943 4.4992218 C50.07866943 5.1179718 50.61491943 5.7367218 51.16741943 6.3742218 C50.83741943 7.0342218 50.50741943 7.6942218 50.16741943 8.3742218 C49.38818115 7.8502179 49.38818115 7.8502179 48.59320068 7.31562805 C47.89581787 6.86058899 47.19843506 6.40554993 46.47991943 5.9367218 C45.45318115 5.2580304 45.45318115 5.2580304 44.40570068 4.56562805 C39.5465746 1.97918223 34.29683101 2.20153269 28.90960693 2.1710968 C28.12473907 2.16539673 27.33987122 2.15969666 26.53121948 2.15382385 C24.87887914 2.14441138 23.22652034 2.13785486 21.57415771 2.13398743 C19.04371947 2.12422682 16.51407551 2.09314738 13.98382568 2.0617218 C12.37575757 2.05519625 10.76768368 2.04994402 9.15960693 2.0460968 C8.40332001 2.03375 7.64703308 2.0214032 6.86782837 2.00868225 C2.98868298 1.98596834 2.98868298 1.98596834 -0.52842712 3.42196655 C-2.52831128 6.41569737 -2.27181849 9.48466965 -2.26495361 12.9667511 C-2.27514526 13.73772125 -2.28533691 14.50869141 -2.2958374 15.30302429 C-2.32603378 17.85156966 -2.33524328 20.39973959 -2.34429932 22.94844055 C-2.36114112 24.71536515 -2.37929068 26.48227773 -2.3986969 28.24917603 C-2.44625737 32.89995061 -2.47602752 37.55067648 -2.50213623 42.20161438 C-2.53191132 46.94739912 -2.57845208 51.6930159 -2.62359619 56.43867493 C-2.70969804 65.75043613 -2.77701265 75.06223184 -2.83258057 84.3742218 C-3.49258057 84.0442218 -4.15258057 83.7142218 -4.83258057 83.3742218 C-4.7482747 72.99520352 -4.65342953 62.61634056 -4.54505348 52.23754406 C-4.4950652 47.41846799 -4.44873541 42.59941411 -4.41070557 37.78022766 C-4.37388472 33.1311758 -4.32753356 28.48230848 -4.27451706 23.83341408 C-4.25595606 22.05800418 -4.24085443 20.2825547 -4.2292366 18.5070858 C-4.21240323 16.02404679 -4.18337566 13.54143201 -4.15142822 11.05854797 C-4.14926804 10.32127472 -4.14710785 9.58400146 -4.1448822 8.8243866 C-4.01293385 0.81946047 -4.01293385 0.81946047 0 0 Z " fill="#6547D0" transform="translate(48.83258056640625,34.62577819824219)"/>
<path d="M0 0 C0 21.45 0 42.9 0 65 C-11.55 65 -23.1 65 -35 65 C-35 64.67 -35 64.34 -35 64 C-24.11 63.67 -13.22 63.34 -2 63 C-1.67 42.54 -1.34 22.08 -1 1 C-16.84049391 -0.1013527 -16.84049391 -0.1013527 -31 4 C-31.66 3.34 -32.32 2.68 -33 2 C-23.14324822 -2.92837589 -11.0201835 0 0 0 Z " fill="#7147B4" transform="translate(147,46)"/>
<path d="M0 0 C0.33 0 0.66 0 1 0 C1 18.48 1 36.96 1 56 C1.66 56.33 2.32 56.66 3 57 C1.02 57.495 1.02 57.495 -1 58 C-1.02314782 50.73305527 -1.04092756 43.46611846 -1.05181217 36.19914436 C-1.05703565 32.82496974 -1.06412361 29.45082029 -1.07543945 26.07666016 C-1.08752436 22.19953741 -1.09323263 18.3224506 -1.09765625 14.4453125 C-1.10281754 13.23070343 -1.10797882 12.01609436 -1.11329651 10.76467896 C-1.11340981 9.08316238 -1.11340981 9.08316238 -1.11352539 7.36767578 C-1.115746 6.37728302 -1.11796661 5.38689026 -1.12025452 4.3664856 C-1 2 -1 2 0 0 Z " fill="#7046C6" transform="translate(108,55)"/>
<path d="M0 0 C-0.8125 1.9375 -0.8125 1.9375 -2 4 C-5.63233102 5.21077701 -8.95121987 5.12444164 -12.73046875 5.09765625 C-13.48088943 5.0962413 -14.23131012 5.09482635 -15.00447083 5.09336853 C-17.3988546 5.0877756 -19.79314453 5.07522444 -22.1875 5.0625 C-23.81184761 5.05748408 -25.43619668 5.05292134 -27.06054688 5.04882812 C-31.04040069 5.03780848 -35.02018444 5.02054873 -39 5 C-39 4.67 -39 4.34 -39 4 C-38.0212793 3.98541748 -37.04255859 3.97083496 -36.03417969 3.95581055 C-32.39595374 3.89774894 -28.75834164 3.8205174 -25.12060547 3.73754883 C-23.54746478 3.70433628 -21.97420599 3.67629283 -20.40087891 3.65356445 C-18.13653328 3.61994972 -15.87326635 3.56763376 -13.609375 3.51171875 C-12.90818542 3.50532883 -12.20699585 3.4989389 -11.48455811 3.49235535 C-6.83651561 3.35303599 -3.92465639 0 0 0 Z " fill="#753FD6" transform="translate(158,118)"/>
<path d="M0 0 C1.87558594 0.00966797 1.87558594 0.00966797 3.7890625 0.01953125 C5.09101563 0.03628906 6.39296875 0.05304687 7.734375 0.0703125 C9.05179688 0.07933594 10.36921875 0.08835938 11.7265625 0.09765625 C14.97934962 0.12122717 18.23177089 0.15413228 21.484375 0.1953125 C21.484375 0.5253125 21.484375 0.8553125 21.484375 1.1953125 C20.68217529 1.21513184 19.87997559 1.23495117 19.0534668 1.25537109 C15.42593323 1.35050745 11.79898455 1.4602333 8.171875 1.5703125 C6.27791992 1.61671875 6.27791992 1.61671875 4.34570312 1.6640625 C2.53295898 1.72207031 2.53295898 1.72207031 0.68359375 1.78125 C-0.43184814 1.8126709 -1.54729004 1.8440918 -2.6965332 1.87646484 C-5.71931286 2.0005615 -5.71931286 2.0005615 -8.515625 4.1953125 C-9.175625 3.5353125 -9.835625 2.8753125 -10.515625 2.1953125 C-6.97418975 -0.00098533 -4.11895253 -0.03744502 0 0 Z " fill="#7549C9" transform="translate(124.515625,45.8046875)"/>
<path d="M0 0 C0.99 0.33 1.98 0.66 3 1 C2.525625 1.495 2.05125 1.99 1.5625 2.5 C-0.62167907 5.99468651 -0.65913911 8.90966936 -1 13 C-1.33 13 -1.66 13 -2 13 C-2.05416188 11.39620659 -2.09286638 9.79188594 -2.125 8.1875 C-2.14820313 7.29417969 -2.17140625 6.40085937 -2.1953125 5.48046875 C-2 3 -2 3 0 0 Z " fill="#694DD6" transform="translate(47,35)"/>
<path d="M0 0 C-0.5 1.9375 -0.5 1.9375 -2 4 C-4.69658452 4.68790422 -7.2017019 4.81946464 -10 5 C-9.4225 4.731875 -8.845 4.46375 -8.25 4.1875 C-5.94252104 3.04946754 -5.94252104 3.04946754 -3.875 1.375 C-2 0 -2 0 0 0 Z " fill="#7F49D2" transform="translate(158,118)"/>
</svg>
